g Body_01
v -0.0254 0 -1.38778e-17
v 0.235876 0 1.20924
v 0.212462 0 1.17233
v -0.03048 0 0.01778
v -0.0254 0.03175 -1.38778e-17
v -0.03048 0.03175 0.01778
v 0.212462 0.03175 1.17233
v 0.235876 0.03175 1.20924
vn 0 -1 0
vn -0.961524 -0 -0.274721
vn -0 1 -0
vn -0.978571 -0 0.205911
vn -0.844378 -0 0.535747
vn 0.977444 -0 -0.211194
vt -0.0254 -1.38778e-17
vt 0.235876 1.20924
vt 0.212462 1.17233
vt -0.03048 0.01778
vt 0.00924574 0
vt 0.00924574 -0.03175
vt -0.00924574 -0.03175
vt -0.00924574 0
vt -0.0254 -1.38778e-17
vt -0.03048 0.01778
vt 0.212462 1.17233
vt 0.235876 1.20924
vt 0.589918 0
vt 0.589918 -0.03175
vt -0.589918 -0.03175
vt -0.589918 0
vt 0.0218524 0
vt 0.0218524 -0.03175
vt -0.0218524 -0.03175
vt -0.0218524 0
vt 0.61857 0
vt 0.61857 -0.03175
vt -0.61857 -0.03175
vt -0.61857 0
f 1/1/1 2/2/1 3/3/1
f 3/3/1 4/4/1 1/1/1
f 5/5/2 1/6/2 4/7/2
f 4/7/2 6/8/2 5/5/2
f 5/9/3 6/10/3 7/11/3
f 7/11/3 8/12/3 5/9/3
f 6/13/4 4/14/4 3/15/4
f 3/15/4 7/16/4 6/13/4
f 7/17/5 3/18/5 2/19/5
f 2/19/5 8/20/5 7/17/5
f 8/21/6 2/22/6 1/23/6
f 1/23/6 5/24/6 8/21/6
